PathFileType	3	(X/Y/Z)	RCH0000002 BBF 14.c3d
DataRate	CameraRate	NumFrames	NumMarkers	Units	OrigDataRate	OrigDataStartFrame	OrigNumFrames
100.0	100.0	15	23	mm	100.0	460	502
Frame#	Time	RASI			LPAT			LKNE			LANK			LMED			LHEE			RPAT			RKNE			RANK			RMED			RHEE			RTOE			LTOE			MAN			LASI			T2			T10			LPSI			RPSI			RTHI			LTHI			RTIB			LTIB			
		X1	Y1	Z1	X2	Y2	Z2	X3	Y3	Z3	X4	Y4	Z4	X5	Y5	Z5	X6	Y6	Z6	X7	Y7	Z7	X8	Y8	Z8	X9	Y9	Z9	X10	Y10	Z10	X11	Y11	Z11	X12	Y12	Z12	X13	Y13	Z13	X14	Y14	Z14	X15	Y15	Z15	X16	Y16	Z16	X17	Y17	Z17	X18	Y18	Z18	X19	Y19	Z19	X20	Y20	Z20	X21	Y21	Z21	X22	Y22	Z22	X23	Y23	Z23	

460	4.590	1434.29172	-103.66385	651.06617	1421.08171	32.98811	382.11545	1378.55047	93.20976	344.57799	1314.51173	101.34114	74.98641	1317.57589	32.12068	92.22413	1275.17531	61.80359	107.15896	1465.90080	-53.66554	361.16253	1412.49643	-106.48517	335.27660	1233.53844	-138.44365	137.97573	1226.40954	-69.97424	150.97552	1215.36786	-107.19675	190.21978	1254.14335	-100.62770	98.06508	1363.87097	65.72308	70.45830	1429.82439	25.68647	957.25466	1413.97123	71.86490	652.67355	1299.01221	4.13374	979.73214	1328.86705	-19.97539	794.75401	1311.38881	6.81936	706.15672	1318.41243	-63.81562	705.20791	1425.79455	-176.98368	445.37631	1374.24095	159.82302	471.15641	1344.78164	-185.52828	258.84739	1348.69452	160.80982	232.06994	
461	4.600	1442.81581	-101.56044	651.96027	1422.24348	34.06772	381.95579	1378.69972	93.96416	344.99522	1314.00876	100.48640	75.45828	1318.12923	31.36378	92.79389	1275.23503	60.48712	107.80974	1483.42932	-50.99841	366.05131	1430.78493	-104.03337	338.31299	1254.65724	-136.66048	139.32835	1247.23248	-68.02507	151.71348	1235.01216	-105.04651	190.80496	1277.09523	-99.21966	100.35136	1363.87809	65.48535	70.71780	1438.27986	25.57261	958.25975	1419.97737	73.51234	653.64111	1307.71675	3.24823	981.15895	1336.85464	-19.83660	795.96221	1318.75269	6.97550	707.44944	1326.78487	-63.43539	706.20863	1440.25169	-175.04925	448.51988	1376.54137	160.74915	471.62490	1364.16516	-183.26963	261.74521	1347.20326	160.88498	232.37977	
462	4.610	1451.29304	-99.51022	652.78138	1423.69930	35.29744	381.74976	1379.03336	94.72552	345.37321	1313.64838	99.84817	75.93020	1318.75008	30.78836	93.38081	1275.45641	59.43504	108.49351	1500.78403	-48.42971	371.25832	1449.02808	-101.66942	341.65578	1276.37055	-134.59791	140.24714	1268.59015	-65.83974	152.16584	1255.12623	-102.74940	190.96795	1300.63199	-97.40114	102.38910	1363.96549	65.38607	70.94936	1446.76934	25.48684	959.00920	1425.79645	75.03572	654.42441	1316.44539	2.54169	982.41456	1344.69545	-19.65282	796.97464	1325.95648	6.89872	708.47227	1335.06253	-63.24710	707.01859	1454.79931	-173.20214	451.84395	1378.60902	161.58129	472.05487	1383.68957	-180.96521	264.47994	1346.04620	161.04509	232.70330	
463	4.620	1459.74356	-97.52486	653.48001	1425.46391	36.67960	381.49079	1379.58969	95.52223	345.71337	1313.44079	99.45624	76.39460	1319.42969	30.43236	93.98378	1275.84309	58.69060	109.20449	1517.91989	-45.94896	376.69105	1467.19495	-99.38583	345.23528	1298.59581	-132.28209	140.76823	1290.42313	-63.43842	152.34669	1275.67543	-100.31355	190.73596	1324.63101	-95.21110	104.17764	1364.13604	65.44746	71.14991	1455.31163	25.42424	959.48515	1431.46429	76.43301	655.03469	1325.21145	2.03107	983.47460	1352.41619	-19.45265	797.78124	1333.01921	6.57608	709.22040	1343.25139	-63.26940	707.60679	1469.45879	-171.42060	455.29095	1380.51651	162.34177	472.46179	1403.31112	-178.62080	267.03150	1345.26957	161.32763	233.02969	
464	4.630	1468.18062	-95.61972	654.01888	1427.52594	38.18007	381.17366	1380.39006	96.35776	346.01696	1313.37639	99.29916	76.84581	1320.15595	30.29598	94.59663	1276.38206	58.24463	109.93413	1534.78340	-43.53811	382.26325	1485.24348	-97.16825	348.98218	1321.25913	-129.75161	140.93839	1312.67514	-60.85344	152.27081	1296.62230	-97.75690	190.13874	1348.98979	-92.70505	105.72726	1364.38380	65.66469	71.31836	1463.92313	25.37543	959.68099	1437.02840	77.70070	655.48613	1334.02759	1.71762	984.32472	1360.04527	-19.26273	798.38064	1339.96806	6.01402	709.69978	1351.35934	-63.50299	707.95247	1484.21901	-169.68305	458.80400	1382.35510	163.03971	472.85384	1422.98769	-176.24293	269.39607	1344.87558	161.73673	233.35039	
465	4.640	1476.61300	-93.81257	654.37328	1429.85400	39.74128	380.79572	1381.43932	97.21703	346.28635	1313.43084	99.33493	77.28112	1320.91504	30.35039	95.21076	1277.04718	58.04866	110.67409	1551.31329	-41.17618	387.89429	1503.11835	-94.99824	352.82724	1344.29960	-127.05497	140.80559	1335.29265	-58.12834	151.94907	1317.92918	-95.10966	189.20195	1373.62668	-89.94830	107.05261	1364.69587	66.01256	71.45608	1472.61807	25.32749	959.60092	1442.54614	78.83474	655.79456	1342.90604	1.58793	984.95991	1367.61301	-19.10661	798.77891	1346.83835	5.23602	709.92576	1359.39813	-63.93267	708.04543	1499.03238	-167.97180	462.32403	1384.22459	163.67536	473.23289	1442.68122	-173.83947	271.57878	1344.83017	162.25049	233.66081	
466	4.650	1485.04790	-92.12157	654.53033	1432.40463	41.29673	380.35754	1382.72835	98.07442	346.52597	1313.57159	99.50449	77.70135	1321.69349	30.54908	95.81781	1277.80448	58.03175	111.41858	1567.44235	-38.84357	393.50675	1520.75079	-92.85633	356.70000	1367.67031	-124.24760	140.41041	1358.22217	-55.31642	151.38519	1339.55884	-92.41610	187.94191	1398.47739	-87.00893	108.16627	1365.05524	66.45400	71.56692	1481.40886	25.26487	959.25882	1448.08189	79.83206	655.97634	1351.85880	1.61566	985.38317	1375.15167	-19.00400	798.98781	1353.67286	4.27899	709.92094	1367.38490	-64.53038	707.88550	1513.81691	-166.27567	465.78704	1386.22300	164.24521	473.59651	1462.35963	-171.42023	273.58512	1345.07473	162.83086	233.96135	
467	4.660	1493.49384	-90.56276	654.48713	1435.13114	42.78423	379.86274	1384.23860	98.90181	346.74266	1313.76486	99.74509	78.11079	1322.48011	30.83941	96.41188	1278.61807	58.11743	112.16586	1583.10017	-36.52520	399.02245	1538.06027	-90.72508	360.52681	1391.33485	-121.38859	139.77942	1381.40563	-52.47866	150.57383	1361.47274	-89.73486	186.36268	1423.48771	-83.95184	109.07311	1365.44407	66.94856	71.65690	1490.30651	25.17029	958.67656	1453.70369	80.69227	656.04735	1360.89785	1.76379	985.60375	1382.69527	-18.97030	799.02286	1360.52045	3.18905	709.71229	1375.34301	-65.25901	707.48113	1528.46442	-164.59080	469.12231	1388.43806	164.74669	473.93999	1481.99740	-168.99751	275.41275	1345.53995	163.43402	234.25744	
468	4.670	1501.96305	-89.14758	654.24839	1437.99245	44.15596	379.31724	1385.94833	99.67524	346.94504	1313.98148	100.00152	78.51689	1323.26754	31.17246	96.99093	1279.45578	58.23784	112.91885	1598.21686	-34.21207	404.35793	1554.95837	-88.59172	364.22880	1415.25918	-118.53773	138.92141	1404.77411	-49.68127	149.50025	1383.62634	-87.13718	184.45550	1448.60318	-80.83485	109.76630	1365.84660	67.45957	71.73351	1499.32099	25.02551	957.88198	1459.47972	81.41937	656.02207	1370.03507	1.98715	985.63524	1390.27928	-19.01643	798.90118	1367.43416	2.01703	709.32796	1383.30212	-66.07625	706.84733	1542.85382	-162.91965	472.25250	1390.94177	165.18160	474.25796	1501.57389	-166.58627	277.04512	1346.15954	164.01944	234.55864	
469	4.680	1510.47316	-87.88088	653.82364	1440.96128	45.38424	378.72770	1387.84006	100.37937	347.14210	1314.20127	100.23347	78.92971	1324.05309	31.50977	97.55735	1280.29388	58.34318	113.68520	1612.72732	-31.90117	409.42039	1571.35420	-86.44995	367.72049	1439.39961	-115.75300	137.82676	1428.24100	-46.99254	148.14127	1405.96193	-84.70266	182.20088	1473.75699	-77.70765	110.22539	1366.25150	67.95896	71.80482	1508.46149	24.81210	956.90654	1465.47508	82.02284	655.91271	1379.28215	2.23513	985.49346	1397.94018	-19.14883	798.63956	1374.46898	0.81435	708.79418	1391.29753	-66.93822	706.00326	1556.86723	-161.26831	475.09571	1393.78889	165.55793	474.54499	1521.06894	-164.20413	278.44815	1346.88228	164.55635	234.87687	
470	4.690	1519.04782	-86.75978	653.22470	1444.03085	46.46280	378.09951	1389.90823	101.00937	347.34087	1314.41533	100.41863	79.36144	1324.83907	31.82662	98.11775	1281.12025	58.40584	114.47706	1626.57586	-29.59396	414.10503	1587.16082	-84.30080	370.90939	1463.68850	-113.08877	136.46973	1451.69526	-44.47953	146.46739	1428.39981	-82.51300	179.57260	1498.85780	-74.61337	110.41660	1366.65323	68.42927	71.87849	1517.73637	24.51214	955.78311	1471.74912	82.51813	655.72829	1388.65016	2.45435	985.19450	1405.71480	-19.36967	798.25257	1381.67939	-0.37035	708.13248	1399.36881	-67.80256	704.96982	1570.40629	-159.64288	477.56946	1397.01911	165.88995	474.79513	1540.45582	-161.87082	279.57068	1347.68107	165.02712	235.22405	
471	4.700	1527.71617	-85.77358	652.46361	1447.21975	47.40427	377.43436	1392.16617	101.57040	347.54357	1314.62681	100.55178	79.82607	1325.63284	32.11180	98.68225	1281.93622	58.41953	115.31071	1639.72065	-27.29403	418.29502	1602.30167	-82.15249	373.69743	1488.02028	-110.59497	134.81334	1474.99599	-42.20480	144.44614	1450.82944	-80.64479	176.54342	1523.77942	-71.59207	110.29559	1367.05258	68.86313	71.96094	1527.15302	24.10890	954.54388	1478.35348	82.92620	655.47377	1398.14896	2.59135	984.75304	1413.63962	-19.67699	797.75122	1389.11683	-1.49367	707.35786	1407.55780	-68.63065	703.76769	1583.40562	-158.04568	479.59592	1400.66198	166.19684	475.00049	1559.69257	-159.60751	280.34838	1348.55843	165.42740	235.60959	
472	4.710	1536.51133	-84.90482	651.55137	1450.57468	48.23486	376.72774	1394.65149	102.07521	347.74459	1314.85029	100.64085	80.33926	1326.44702	32.36497	99.26356	1282.75727	58.39474	116.20632	1652.13757	-25.00468	421.86480	1616.71630	-80.01942	375.98429	1512.24028	-108.31714	132.81612	1497.96919	-40.22364	142.04655	1473.10227	-79.16249	173.09185	1548.35385	-68.68505	109.81246	1367.45661	69.26058	72.05669	1536.71736	23.58763	953.21863	1485.33080	83.27220	655.14929	1407.78644	2.59511	984.18103	1421.74991	-20.06486	797.14202	1396.82721	-2.51890	706.47781	1415.90622	-69.38911	702.41603	1595.84103	-156.47261	481.10764	1404.74311	166.50038	475.14919	1578.71359	-157.43595	280.71081	1349.54860	165.76391	236.03797	
473	4.720	1545.46784	-84.13128	650.49764	1454.17095	48.98786	375.96677	1397.42920	102.54056	347.92769	1315.11078	100.70145	80.91845	1327.29988	32.59244	99.87617	1283.61306	58.35214	117.18780	1663.82297	-22.72713	424.68701	1630.36480	-77.92054	377.67312	1536.13923	-106.29707	130.44003	1520.40750	-38.58220	139.24499	1495.02828	-78.11333	169.20956	1572.36940	-65.93855	108.91869	1367.87826	69.62532	72.16821	1546.43323	22.93634	951.83355	1492.71400	83.58349	654.74951	1417.56761	2.41959	983.48695	1430.07867	-20.52346	796.42678	1404.84862	-3.41640	705.49264	1424.45295	-70.05039	700.93221	1607.73115	-154.91228	482.05284	1409.29024	166.82183	475.22329	1597.42367	-155.37772	280.59025	1350.71682	166.05046	236.50686	
474	4.730	1554.61850	-83.42883	649.31152	1458.11065	49.69692	375.12859	1400.59202	102.98325	348.06401	1315.44291	100.75120	81.58312	1328.21637	32.80275	100.53575	1284.54738	58.31572	118.28266	1674.79501	-20.46006	426.64311	1643.23038	-75.87749	378.67809	1559.45521	-104.57351	127.65887	1542.07382	-37.31657	136.03203	1516.37780	-77.52470	164.90863	1595.57467	-63.40551	107.57555	1368.33621	69.96071	72.29629	1556.30159	22.14667	950.41066	1500.52592	83.88703	654.26339	1427.49374	2.02601	982.67575	1438.65545	-21.03893	795.60311	1413.20932	-4.16326	704.39677	1433.23135	-70.59277	699.33248	1619.13231	-153.34748	482.39954	1414.33783	167.17876	475.19714	1615.69652	-153.45364	279.93132	1352.15650	166.30357	237.00590	
